<mxfile host="app.diagrams.net" modified="2023-04-26T11:58:39.488Z" agent="Mozilla/5.0 (Windows NT 10.0; Win64; x64) AppleWebKit/537.36 (KHTML, like Gecko) Chrome/112.0.0.0 Safari/537.36" version="21.2.1" etag="NL9WYClJu_X6lZ2GqDP6" type="github">
  <diagram name="Page-1" id="5KsR6QROZ4tOL8PqWzx3">
    <mxGraphModel>
      <root>
        <mxCell id="0" />
        <mxCell id="1" parent="0" />
      </root>
    </mxGraphModel>
  </diagram>
</mxfile>
